<?xml version="1.0" encoding="UTF-8"?>
<svg xmlns="http://www.w3.org/2000/svg" xmlns:xlink="http://www.w3.org/1999/xlink" height="499.312pt" viewBox="0 0 499.312 499.312" width="499.312pt">
  <linearGradient id="linear0" gradientUnits="userSpaceOnUse" x1="249.656" x2="249.656" y1="499.312" y2="-.0008">
    <stop offset="0" stop-color="#9f2fff" />
    <stop offset="1" stop-color="#fc6dab" />
  </linearGradient>
  <path d="m202.902344 88.96875-11.308594-11.3125 24.40625-24.398438 64.398438 64.398438-11.308594 11.3125-53.089844-53.089844zm90.1875 64 11.308594-11.3125-16-16-11.308594 11.3125zm-37.089844-152.96875 243.3125 243.3125-24 24 16 16-11.3125 11.3125v164.6875c0 13.230469-10.769531 24-24 24s-24-10.769531-24-24v-24c0-4.417969-3.585938-8-8-8s-8 3.582031-8 8v40c0 13.230469-10.769531 24-24 24s-24-10.769531-24-24v-64c0-4.417969-3.585938-8-8-8s-8 3.582031-8 8v8c0 13.230469-10.769531 24-24 24s-24-10.769531-24-24v-108.6875l-21.167969-21.167969c-7.816406-7.800781-21.839843-7.800781-29.65625 0l-53.175781 53.167969v15.429688c0 10.6875-4.167969 20.738281-11.71875 28.289062l-112.96875 112.96875h-3.3125c-39.703125 0-72-32.296875-72-72v-3.3125l112.96875-112.96875c7.550781-7.550781 17.597656-11.71875 28.289062-11.71875h15.429688l53.167969-53.167969c3.96875-3.96875 6.144531-9.234375 6.144531-14.832031 0-5.601562-2.175781-10.863281-6.144531-14.832031l-68.199219-68.199219c-8.808594-8.800781-13.65625-20.511719-13.65625-32.96875s4.847656-24.167969 13.65625-32.96875l74.34375-74.34375 16 16zm-103.03125 136.96875 57.023438 57.023438c9.390624-4.304688 19.617187-6.679688 30.007812-6.679688 39.703125 0 72 32.304688 72 72 0 10.398438-2.375 20.617188-6.679688 30l57.023438 57.023438c5.703125 5.710937 13.59375 8.976562 21.65625 8.976562s15.953125-3.265625 21.65625-8.96875l63.03125-63.03125-252.6875-252.6875-63.03125 63.03125c-5.785156 5.785156-8.96875 13.480469-8.96875 21.65625s3.183594 15.871094 8.96875 21.65625zm-75.121094 337.183594 86.839844-86.839844-52.6875-52.6875-86.839844 86.839844c25.917969 6.375 46.3125 26.765625 52.6875 52.6875zm-14.589844 8.464844c-3.753906-23.914063-22.648437-42.800782-46.5625-46.5625 3.761719 23.890624 22.671876 42.800781 46.5625 46.5625zm120.742188-124.5625v-15.429688l-27.3125-27.3125h-15.429688c-6.417968 0-12.449218 2.496094-16.976562 7.03125l-.96875.96875 52.6875 52.6875.96875-.96875c4.527344-4.535156 7.03125-10.558594 7.03125-16.976562zm108.960938-80.878907c1.933593-5.742187 3.039062-11.761719 3.039062-17.863281 0-30.878906-25.128906-56-56-56-6.105469 0-12.121094 1.113281-17.855469 3.039062 6.304688 6.847657 9.855469 15.609376 9.855469 24.960938 0 9.871094-3.839844 19.152344-10.832031 26.144531l-49.855469 49.855469 20.6875 20.6875 49.855469-49.855469c6.886719-6.886719 16.410156-10.832031 26.144531-10.832031 9.222656 0 18.183594 3.640625 24.960938 9.863281zm171.039062 33.449219-47.03125 47.03125c-8.679688 8.679688-20.695312 13.65625-32.96875 13.65625s-24.289062-4.976562-32.96875-13.65625l-31.03125-31.03125v92.6875c0 4.414062 3.585938 8 8 8s8-3.585938 8-8v-8c0-13.234375 10.769531-24 24-24s24 10.765625 24 24v64c0 4.414062 3.585938 8 8 8s8-3.585938 8-8v-40c0-13.234375 10.769531-24 24-24s24 10.765625 24 24v24c0 4.414062 3.585938 8 8 8s8-3.585938 8-8zm12.6875-67.3125-220.6875-220.6875-12.6875 12.6875 220.6875 220.6875zm-36.289062 45.65625-11.308594-11.3125-16 16 11.308594 11.3125zm-56.398438 50.34375c3.832031 0 7.601562-1.550781 10.34375-4.28125l22.0625-22.0625-11.308594-11.3125-21.097656 21.097656-13.097656-13.097656-11.308594 11.3125 14.078125 14.078125c2.726563 2.714844 6.496094 4.265625 10.328125 4.265625zm0 0" fill="url(#linear0)" />
</svg>
